# xmcd CD database file
#
# Track frame offsets:
#	150
#	15419
#	32004
#	49354
#	64255
#	81003
#	96404
#	111845
#	125343
#	138139
#	156873
#
# Disc length: 2364 seconds
#
# Revision: 1
# Processed by: cddbd v1.5.2PL0 Copyright (c) Steve Scherf et al.
# Submitted via: FreeDB 13.8
#
DISCID=8c093a0b
DTITLE=Peter Belli - Underværker
DYEAR=2011
DGENRE=Rock
TTITLE0=Gi' mig, gi' mig
TTITLE1=Hjem til din kærlighed
TTITLE2=Længere nu
TTITLE3=Grå guld
TTITLE4=Et underligt stof
TTITLE5=Underværker
TTITLE6=Det var sommer
TTITLE7=Diskofjæs
TTITLE8=Sjov tobak (feat. Thee Attacks)
TTITLE9=Millionær
TTITLE10=Det var ikke mig
EXTD=RecArt Music R 60187-2
EXTT0=
EXTT1=
EXTT2=
EXTT3=
EXTT4=
EXTT5=
EXTT6=
EXTT7=
EXTT8=
EXTT9=
EXTT10=
PLAYORDER=
